# This file uses meters as units for non-parametric coordinates.

mtllib barrel1_model.mtl
g default
v -26.768967 -75.000000 -43.301277
v -26.768974 -75.000000 43.301270
v 48.153580 -75.000000 0.000000
v -49.999992 -75.000000 -86.602554
v -50.000008 -75.000000 86.602539
v 93.289078 -75.000000 0.000000
v -25.631908 -25.000000 -43.083687
v -27.646008 -25.000000 43.926743
v 47.612251 -25.000000 0.000000
v -25.631908 25.000000 -43.083687
v -27.646008 25.000000 43.926743
v 47.612251 25.000000 0.000000
v -49.999992 75.000000 -86.602554
v -50.000008 75.000000 86.602539
v 93.289078 75.000000 0.000000
v -26.768965 75.000000 -43.301285
v -26.768970 75.000000 43.301277
v 48.153572 75.000000 -0.000000
v -26.768967 -68.800003 -43.301277
v -26.768974 -68.800003 43.301273
v 2.119918 -68.800003 0.000002
v 48.153580 -68.800003 0.000003
v -26.768965 68.800003 -43.301285
v -26.768970 68.800003 43.301277
v 2.119922 68.800003 -0.000002
v 48.153572 68.800003 -0.000000
vt 0.460938 0.088592
vt 0.460938 0.223908
vt 0.578125 0.156250
vt 0.421875 0.020934
vt 0.421875 0.291566
vt 0.656250 0.156250
vt 0.375000 0.312500
vt 0.458333 0.312500
vt 0.541667 0.312500
vt 0.625000 0.312500
vt 0.375000 0.437813
vt 0.458333 0.437813
vt 0.541667 0.437813
vt 0.625000 0.437813
vt 0.375000 0.563127
vt 0.458333 0.563127
vt 0.541667 0.563127
vt 0.625000 0.563127
vt 0.375000 0.688440
vt 0.458333 0.688440
vt 0.541667 0.688440
vt 0.625000 0.688440
vt 0.421875 0.708434
vt 0.421875 0.979066
vt 0.656250 0.843750
vt 0.460938 0.776092
vt 0.460938 0.911408
vt 0.578125 0.843750
vt 0.500000 0.150000
vt 0.500000 0.837500
vt 0.460938 0.223908
vt 0.460938 0.088592
vt 0.578125 0.156250
vt 0.460938 0.911408
vt 0.460938 0.776092
vt 0.578125 0.843750
vn 0.000000 -1.000000 -0.000000
vn 0.000000 -1.000000 -0.000000
vn 0.000000 -1.000000 -0.000000
vn 0.000000 -1.000000 -0.000000
vn 0.000000 -1.000000 -0.000000
vn 0.000000 -1.000000 -0.000000
vn -0.905946 0.423336 -0.007012
vn -0.905946 0.423336 -0.007012
vn -0.952853 0.303194 -0.012059
vn -0.953072 0.302501 -0.012087
vn 0.461188 0.437094 0.772175
vn 0.461188 0.437094 0.772175
vn 0.484797 0.309995 0.817847
vn 0.484757 0.310274 0.817766
vn 0.462703 0.434806 -0.772561
vn 0.462703 0.434806 -0.772561
vn 0.486238 0.311101 -0.816571
vn 0.486459 0.309644 -0.816993
vn -0.952853 -0.303194 -0.012059
vn -0.953072 -0.302501 -0.012087
vn 0.484797 -0.309995 0.817847
vn 0.484757 -0.310274 0.817766
vn 0.486238 -0.311101 -0.816571
vn 0.486459 -0.309644 -0.816993
vn -0.905946 -0.423336 -0.007012
vn -0.905946 -0.423336 -0.007012
vn 0.461188 -0.437094 0.772175
vn 0.461188 -0.437094 0.772175
vn 0.462703 -0.434806 -0.772561
vn 0.462703 -0.434806 -0.772561
vn 0.000000 1.000000 -0.000000
vn 0.000000 1.000000 0.000000
vn 0.000000 1.000000 -0.000000
vn 0.000000 1.000000 -0.000000
vn 0.000000 1.000000 -0.000000
vn 0.000000 1.000000 -0.000000
vn 0.000000 -1.000000 -0.000000
vn 0.000000 -1.000000 0.000000
vn 0.000000 -1.000000 -0.000000
vn 0.000000 -1.000000 -0.000000
vn 0.000000 1.000000 0.000000
vn 0.000000 1.000000 -0.000000
vn 0.000000 1.000000 -0.000000
vn 0.000000 1.000000 0.000000
vn 1.000000 0.000000 0.000000
vn 1.000000 0.000000 0.000000
vn 1.000000 0.000000 0.000000
vn 1.000000 0.000000 0.000000
vn -0.500388 0.000000 -0.865802
vn -0.500388 0.000000 -0.865802
vn -0.500388 0.000000 -0.865802
vn -0.500388 0.000000 -0.865802
vn -0.500388 -0.000000 0.865802
vn -0.500388 -0.000000 0.865802
vn -0.500388 -0.000000 0.865802
vn -0.500388 -0.000000 0.865802
vn 1.000000 0.000000 0.000000
vn 1.000000 0.000000 0.000000
vn 1.000000 0.000000 0.000000
vn 1.000000 0.000000 0.000000
vn -0.500388 0.000000 -0.865802
vn -0.500388 0.000000 -0.865802
vn -0.500388 0.000000 -0.865802
vn -0.500388 0.000000 -0.865802
vn -0.500388 0.000000 0.865801
vn -0.500388 0.000000 0.865801
vn -0.500388 0.000000 0.865801
vn -0.500388 0.000000 0.865801
s 1
g pCylinder1
usemtl initialShadingGroup
f 1/1/1 2/2/2 5/5/3 4/4/4
f 2/2/2 3/3/5 6/6/6 5/5/3
f 3/3/5 1/1/1 4/4/4 6/6/6
s 2
f 4/7/7 5/8/8 8/12/9 7/11/10
s 3
f 5/8/11 6/9/12 9/13/13 8/12/14
s 4
f 6/9/15 4/10/16 7/14/17 9/13/18
s 2
f 7/11/10 8/12/9 11/16/19 10/15/20
s 3
f 8/12/14 9/13/13 12/17/21 11/16/22
s 4
f 9/13/18 7/14/17 10/18/23 12/17/24
s 2
f 10/15/20 11/16/19 14/20/25 13/19/26
s 3
f 11/16/22 12/17/21 15/21/27 14/20/28
s 4
f 12/17/24 10/18/23 13/22/29 15/21/30
s 5
f 13/24/31 14/23/32 17/26/33 16/27/34
f 14/23/32 15/25/35 18/28/36 17/26/33
f 15/25/35 13/24/31 16/27/34 18/28/36
s 6
f 20/31/37 19/32/38 21/29/39
f 22/33/40 20/31/37 21/29/39
f 19/32/38 22/33/40 21/29/39
s 7
f 23/34/41 24/35/42 25/30/43
f 24/35/42 26/36/44 25/30/43
f 26/36/44 23/34/41 25/30/43
s off
f 2/2/45 1/1/46 19/32/47 20/31/48
f 3/3/49 2/2/50 20/31/51 22/33/52
f 1/1/53 3/3/54 22/33/55 19/32/56
f 16/27/57 17/26/58 24/35/59 23/34/60
f 17/26/61 18/28/62 26/36/63 24/35/64
f 18/28/65 16/27/66 23/34/67 26/36/68
