# This file uses meters as units for non-parametric coordinates.

mtllib crate.mtl
g default
v -50.000000 -10.806806 50.000000
v 50.000000 -10.806806 50.000000
v -50.000000 -4.180051 50.000000
v 50.000000 -4.180051 50.000000
v -50.000000 82.566333 50.000000
v 50.000000 82.566333 50.000000
v -50.000000 89.193194 50.000000
v 50.000000 89.193194 50.000000
v -50.000000 89.193194 -50.000000
v 50.000000 89.193194 -50.000000
v -50.000000 82.566440 -50.000000
v 50.000000 82.566440 -50.000000
v -50.000000 -4.179944 -50.000000
v 50.000000 -4.179944 -50.000000
v -50.000000 -10.806806 -50.000000
v 50.000000 -10.806806 -50.000000
v -53.993538 -10.806806 53.993538
v 53.993538 -10.806806 53.993538
v 53.993538 -4.180051 53.993538
v -53.993538 -4.180051 53.993538
v -53.993538 -4.179944 -53.993538
v 53.993538 -4.179944 -53.993538
v 53.993538 -10.806806 -53.993538
v -53.993538 -10.806806 -53.993538
v -53.993538 82.566333 53.993538
v 53.993538 82.566333 53.993538
v 53.993538 89.193194 53.993538
v -53.993538 89.193194 53.993538
v -53.993538 89.193194 -53.993538
v 53.993538 89.193194 -53.993538
v 53.993538 82.566440 -53.993538
v -53.993538 82.566440 -53.993538
vt 0.752545 0.938102
vt 0.752545 0.632262
vt 0.771313 0.632262
vt 0.771313 0.938102
vt 0.269768 0.935446
vt 0.047716 0.933798
vt 0.048556 0.647382
vt 0.270608 0.649030
vt 0.752545 0.938102
vt 0.752545 0.632262
vt 0.771313 0.632262
vt 0.771313 0.938102
vt 0.752545 0.938102
vt 0.752545 0.632262
vt 0.771313 0.632262
vt 0.771313 0.938102
vt 0.269768 0.935445
vt 0.047716 0.933798
vt 0.048556 0.647382
vt 0.270608 0.649029
vt 0.752545 0.938102
vt 0.752545 0.632262
vt 0.771313 0.632262
vt 0.771313 0.938102
vt 0.388730 0.647572
vt 0.671949 0.647572
vt 0.671949 0.930791
vt 0.388730 0.930791
vt 0.377420 0.636262
vt 0.683260 0.636262
vt 0.683260 0.942102
vt 0.377420 0.942102
vt 0.388730 0.645795
vt 0.671949 0.645795
vt 0.671949 0.929014
vt 0.388730 0.929014
vt 0.377420 0.634485
vt 0.683260 0.634485
vt 0.683260 0.940325
vt 0.377420 0.940325
vt 0.781601 0.297400
vt 0.498382 0.297400
vt 0.487072 0.286090
vt 0.792911 0.286090
vt 0.498382 0.580619
vt 0.487072 0.591930
vt 0.781601 0.580619
vt 0.792911 0.591930
vt 0.498382 0.578862
vt 0.781601 0.578862
vt 0.792912 0.590173
vt 0.487072 0.590173
vt 0.781601 0.295643
vt 0.792912 0.284333
vt 0.498382 0.295643
vt 0.487072 0.284333
vt 0.001992 0.351972
vt 0.001992 0.046132
vt 0.020760 0.046132
vt 0.020760 0.351972
vt 0.047213 0.654333
vt 0.270450 0.654074
vt 0.270608 0.928383
vt 0.047372 0.928643
vt 0.027523 0.351972
vt 0.027523 0.046132
vt 0.046292 0.046132
vt 0.046292 0.351972
vt 0.366641 0.351972
vt 0.366641 0.046132
vt 0.385409 0.046132
vt 0.385409 0.351972
vt 0.269767 0.935445
vt 0.047716 0.933798
vt 0.048556 0.647382
vt 0.270608 0.649030
vt 0.391977 0.351972
vt 0.391977 0.046132
vt 0.410746 0.046132
vt 0.410746 0.351972
vn 0.000000 0.000000 1.000000
vn 0.000000 0.000000 1.000000
vn 0.000000 0.000000 1.000000
vn 0.000000 0.000000 1.000000
vn 0.000000 0.000000 1.000000
vn 0.000000 0.000000 1.000000
vn 0.000000 0.000000 1.000000
vn 0.000000 0.000000 1.000000
vn 0.000000 0.000000 1.000000
vn 0.000000 0.000000 1.000000
vn 0.000000 0.000000 1.000000
vn 0.000000 0.000000 1.000000
vn 0.000000 1.000000 -0.000000
vn 0.000000 1.000000 -0.000000
vn 0.000000 1.000000 0.000000
vn 0.000000 1.000000 0.000000
vn 0.000000 0.000000 -1.000000
vn 0.000000 0.000000 -1.000000
vn 0.000000 0.000000 -1.000000
vn 0.000000 0.000000 -1.000000
vn 0.000000 0.000000 -1.000000
vn 0.000000 0.000000 -1.000000
vn 0.000000 0.000000 -1.000000
vn 0.000000 0.000000 -1.000000
vn 0.000000 0.000000 -1.000000
vn 0.000000 0.000000 -1.000000
vn 0.000000 0.000000 -1.000000
vn 0.000000 0.000000 -1.000000
vn 0.000000 -1.000000 0.000000
vn 0.000000 -1.000000 0.000000
vn 0.000000 -1.000000 -0.000000
vn 0.000000 -1.000000 -0.000000
vn 1.000000 0.000000 0.000000
vn 1.000000 0.000000 0.000000
vn 1.000000 0.000000 0.000000
vn 1.000000 0.000000 0.000000
vn 1.000000 0.000000 0.000000
vn 1.000000 0.000000 0.000000
vn 1.000000 0.000000 0.000000
vn 1.000000 0.000000 0.000000
vn 1.000000 0.000000 0.000000
vn 1.000000 0.000000 0.000000
vn 1.000000 0.000000 0.000000
vn 1.000000 0.000000 0.000000
vn -1.000000 0.000000 0.000000
vn -1.000000 0.000000 0.000000
vn -1.000000 0.000000 0.000000
vn -1.000000 0.000000 0.000000
vn -1.000000 0.000000 0.000000
vn -1.000000 0.000000 0.000000
vn -1.000000 0.000000 0.000000
vn -1.000000 0.000000 0.000000
vn -1.000000 0.000000 0.000000
vn -1.000000 0.000000 0.000000
vn -1.000000 0.000000 0.000000
vn -1.000000 0.000000 0.000000
vn 0.000000 -1.000000 -0.000000
vn 0.000000 -1.000000 -0.000000
vn 0.000000 1.000000 0.000000
vn 0.000000 1.000000 0.000000
vn 0.000000 1.000000 0.000000
vn 0.000000 1.000000 0.000000
vn 0.000000 1.000000 0.000001
vn 0.000000 1.000000 0.000001
vn 0.000000 1.000000 0.000001
vn 0.000000 1.000000 0.000001
vn 0.000000 -1.000000 0.000000
vn 0.000000 -1.000000 0.000000
vn 0.000000 -1.000000 -0.000001
vn 0.000000 -1.000000 -0.000001
vn 0.000000 -1.000000 -0.000001
vn 0.000000 -1.000000 -0.000001
vn 0.000000 1.000000 -0.000000
vn 0.000000 1.000000 -0.000000
vn 0.000000 1.000000 0.000000
vn 0.000000 1.000000 0.000000
vn 0.000000 -1.000000 -0.000000
vn 0.000000 -1.000000 -0.000000
vn 0.000000 -1.000000 -0.000000
vn 0.000000 -1.000000 -0.000000
s off
g pCube1
usemtl blinn3SG
f 17/57/1 18/58/2 19/59/3 20/60/4
f 3/61/5 4/62/6 6/63/7 5/64/8
f 25/65/9 26/66/10 27/67/11 28/68/12
s 1
f 7/25/13 8/26/14 10/27/15 9/28/16
s off
f 29/69/17 30/70/18 31/71/19 32/72/20
f 11/73/21 12/74/22 14/75/23 13/76/24
f 21/77/25 22/78/26 23/79/27 24/80/28
s 2
f 15/33/29 16/34/30 2/35/31 1/36/32
s off
f 18/1/33 23/2/34 22/3/35 19/4/36
f 4/5/37 14/6/38 12/7/39 6/8/40
f 26/9/41 31/10/42 30/11/43 27/12/44
f 24/13/45 17/14/46 20/15/47 21/16/48
f 13/17/49 3/18/50 5/19/51 11/20/52
f 32/21/53 25/22/54 28/23/55 29/24/56
s 2
f 1/36/32 2/35/31 18/39/57 17/40/58
s 3
f 4/41/59 3/42/60 20/43/61 19/44/62
f 13/45/63 14/47/64 22/48/65 21/46/66
s 2
f 16/34/30 15/33/29 24/37/67 23/38/68
f 2/35/31 16/34/30 23/38/68 18/39/57
s 3
f 14/47/64 4/41/59 19/44/62 22/48/65
s 2
f 15/33/29 1/36/32 17/40/58 24/37/67
s 3
f 3/42/60 13/45/63 21/46/66 20/43/61
s 4
f 5/49/69 6/50/70 26/51/71 25/52/72
s 1
f 8/26/14 7/25/13 28/29/73 27/30/74
f 9/28/16 10/27/15 30/31/75 29/32/76
s 4
f 12/53/77 11/55/78 32/56/79 31/54/80
f 6/50/70 12/53/77 31/54/80 26/51/71
s 1
f 10/27/15 8/26/14 27/30/74 30/31/75
s 4
f 11/55/78 5/49/69 25/52/72 32/56/79
s 1
f 7/25/13 9/28/16 29/32/76 28/29/73
